<?xml version="1.0" encoding="UTF-8" standalone="no"?>
<!DOCTYPE svg PUBLIC "-//W3C//DTD SVG 1.1//EN" "http://www.w3.org/Graphics/SVG/1.1/DTD/svg11.dtd">
<svg version="1.1" xmlns="http://www.w3.org/2000/svg" xmlns:xlink="http://www.w3.org/1999/xlink" preserveAspectRatio="xMidYMid meet" viewBox="0 0 44 44" width="44" height="44"><defs><path d="M22 0.85C10.02 0.85 0.31 10.56 0.31 22.54C0.31 32.12 6.52 40.25 15.14 43.12C16.23 43.32 16.62 42.65 16.62 42.07C16.62 41.56 16.61 40.19 16.59 38.38C10.56 39.69 9.29 35.47 9.29 35.47C8.3 32.97 6.88 32.3 6.88 32.3C4.91 30.96 7.03 30.98 7.03 30.98C9.21 31.14 10.35 33.22 10.35 33.22C12.29 36.53 15.43 35.58 16.66 35.02C16.86 33.62 17.42 32.66 18.04 32.12C13.22 31.57 8.16 29.71 8.16 21.4C8.16 19.03 9.01 17.1 10.39 15.58C10.17 15.03 9.43 12.83 10.61 9.84C10.61 9.84 12.43 9.26 16.57 12.06C18.3 11.58 20.16 11.34 22 11.33C23.84 11.34 25.7 11.58 27.43 12.06C31.57 9.26 33.39 9.84 33.39 9.84C34.57 12.83 33.83 15.03 33.61 15.58C35 17.1 35.84 19.03 35.84 21.4C35.84 29.73 30.76 31.57 25.93 32.1C26.71 32.77 27.4 34.1 27.4 36.12C27.4 39.02 27.38 41.36 27.38 42.07C27.38 42.65 27.77 43.33 28.87 43.11C37.48 40.24 43.69 32.12 43.69 22.54C43.69 10.56 33.98 0.85 22 0.85" id="kk3PRq2cw"></path></defs><g><g><g><use xlink:href="#kk3PRq2cw" opacity="1" fill="#0c3d87" fill-opacity="1"></use><g><use xlink:href="#kk3PRq2cw" opacity="1" fill-opacity="0" stroke="#000000" stroke-width="1" stroke-opacity="0"></use></g></g></g></g></svg>